Monda-Bold2.ufo
<glyph name="asterisk" format="1">
  <advance width="990"/>
  <unicode hex="002A"/>
  <outline>
    <contour>
      <point x="827.0" y="1295.0" type="line"/>
      <point x="908.0" y="1134.0" type="line"/>
      <point x="518.0" y="977.0" type="line"/>
      <point x="471.0" y="1068.0" type="line"/>
    </contour>
    <contour>
      <point x="162.0" y="750.0" type="line"/>
      <point x="82.0" y="911.0" type="line"/>
      <point x="471.0" y="1068.0" type="line"/>
      <point x="518.0" y="977.0" type="line"/>
    </contour>
    <contour>
      <point x="897.0" y="875.0" type="line"/>
      <point x="802.0" y="722.0" type="line"/>
      <point x="468.0" y="979.0" type="line"/>
      <point x="521.0" y="1066.0" type="line"/>
    </contour>
    <contour>
      <point x="92.0" y="1170.0" type="line"/>
      <point x="187.0" y="1323.0" type="line"/>
      <point x="521.0" y="1066.0" type="line"/>
      <point x="468.0" y="979.0" type="line"/>
    </contour>
    <contour>
      <point x="584.0" y="599.0" type="line"/>
      <point x="406.0" y="599.0" type="line"/>
      <point x="444.0" y="1023.0" type="line"/>
      <point x="545.0" y="1023.0" type="line"/>
    </contour>
    <contour>
      <point x="406.0" y="1446.0" type="line"/>
      <point x="584.0" y="1446.0" type="line"/>
      <point x="545.0" y="1023.0" type="line"/>
      <point x="444.0" y="1023.0" type="line"/>
    </contour>
  </outline>
</glyph>
<glyph name="one" format="1">
  <advance width="1102"/>
  <unicode hex="0031"/>
  <outline>
    <contour>
      <point x="1044" y="0" type="line"/>
      <point x="136" y="0" type="line"/>
      <point x="136" y="233" type="line"/>
      <point x="1044" y="233" type="line"/>
    </contour>
    <contour>
      <point x="786" y="0" type="line"/>
      <point x="447" y="0" type="line"/>
      <point x="447" y="1225" type="line"/>
      <point x="135" y="1183" type="line"/>
      <point x="106" y="1408" type="line"/>
      <point x="564" y="1490" type="line"/>
      <point x="786" y="1490" type="line"/>
    </contour>
  </outline>
</glyph>
<glyph name="six" format="1">
  <advance width="1316"/>
  <unicode hex="0036"/>
  <outline>
    <contour>
      <point x="100" y="168"/>
      <point x="245" y="-24"/>
      <point x="662" y="-24" type="curve" smooth="yes"/>
      <point x="1060" y="-24"/>
      <point x="1222" y="124"/>
      <point x="1222" y="456" type="curve"/>
      <point x="1222" y="797"/>
      <point x="1047" y="912"/>
      <point x="713" y="912" type="curve" smooth="yes"/>
      <point x="689" y="912"/>
      <point x="625" y="909"/>
      <point x="582" y="895" type="curve"/>
      <point x="989" y="1489" type="line"/>
      <point x="592" y="1489" type="line"/>
      <point x="343" y="1113" type="line" smooth="yes"/>
      <point x="234" y="948"/>
      <point x="100" y="745"/>
      <point x="100" y="490" type="curve"/>
    </contour>
    <contour>
      <point x="894" y="292"/>
      <point x="839" y="215"/>
      <point x="663" y="215" type="curve" smooth="yes"/>
      <point x="495" y="215"/>
      <point x="440" y="290"/>
      <point x="440" y="467" type="curve"/>
      <point x="440" y="635"/>
      <point x="500" y="685"/>
      <point x="663" y="685" type="curve" smooth="yes"/>
      <point x="840" y="685"/>
      <point x="894" y="625"/>
      <point x="894" y="465" type="curve"/>
    </contour>
  </outline>
</glyph>
<glyph name="nine" format="1">
  <advance width="1307"/>
  <unicode hex="0039"/>
  <outline>
    <contour>
      <point x="794" y="0" type="line"/>
      <point x="978" y="342" type="line" smooth="yes"/>
      <point x="1072" y="517"/>
      <point x="1207" y="710"/>
      <point x="1207" y="1019" type="curve" smooth="yes"/>
      <point x="1207" y="1043" type="line" smooth="yes"/>
      <point x="1207" y="1386"/>
      <point x="1064" y="1527"/>
      <point x="659" y="1527" type="curve" smooth="yes"/>
      <point x="261" y="1527"/>
      <point x="94" y="1405"/>
      <point x="94" y="1053" type="curve"/>
      <point x="94" y="682"/>
      <point x="265" y="570"/>
      <point x="587" y="570" type="curve" smooth="yes"/>
      <point x="603" y="570"/>
      <point x="694" y="575"/>
      <point x="727" y="582" type="curve"/>
      <point x="421" y="0" type="line"/>
    </contour>
    <contour>
      <point x="867" y="879"/>
      <point x="831" y="815"/>
      <point x="658" y="815" type="curve" smooth="yes"/>
      <point x="461" y="815"/>
      <point x="422" y="883"/>
      <point x="422" y="1053" type="curve"/>
      <point x="422" y="1226"/>
      <point x="465" y="1291"/>
      <point x="654" y="1291" type="curve" smooth="yes"/>
      <point x="832" y="1291"/>
      <point x="867" y="1234"/>
      <point x="867" y="1057" type="curve"/>
    </contour>
  </outline>
</glyph>
<glyph name="at" format="1">
  <advance width="1709"/>
  <unicode hex="0040"/>
  <outline>
    <contour>
      <point x="940" y="468" type="line"/>
      <point x="907" y="449"/>
      <point x="877" y="444"/>
      <point x="849" y="444" type="curve" smooth="yes"/>
      <point x="715" y="444"/>
      <point x="696" y="537"/>
      <point x="696" y="592" type="curve" smooth="yes"/>
      <point x="696" y="667"/>
      <point x="685" y="834"/>
      <point x="880" y="834" type="curve" smooth="yes"/>
      <point x="913" y="834"/>
      <point x="937" y="819"/>
      <point x="940" y="802" type="curve"/>
    </contour>
    <contour>
      <point x="1229" y="126" type="line"/>
      <point x="1126" y="100"/>
      <point x="1035" y="78"/>
      <point x="951" y="78" type="curve" smooth="yes"/>
      <point x="472" y="78"/>
      <point x="306" y="311"/>
      <point x="306" y="655" type="curve" smooth="yes"/>
      <point x="306" y="926"/>
      <point x="496" y="1156"/>
      <point x="867" y="1156" type="curve" smooth="yes"/>
      <point x="1256" y="1156"/>
      <point x="1413" y="946"/>
      <point x="1413" y="655" type="curve" smooth="yes"/>
      <point x="1413" y="605"/>
      <point x="1402" y="444"/>
      <point x="1259" y="444" type="curve" smooth="yes"/>
      <point x="1175" y="444"/>
      <point x="1177" y="497"/>
      <point x="1177" y="531" type="curve" smooth="yes"/>
      <point x="1177" y="1019" type="line"/>
      <point x="940" y="1019" type="line"/>
      <point x="940" y="974" type="line"/>
      <point x="897" y="1010"/>
      <point x="822" y="1026"/>
      <point x="746" y="1026" type="curve" smooth="yes"/>
      <point x="510" y="1026"/>
      <point x="458" y="756"/>
      <point x="458" y="592" type="curve" smooth="yes"/>
      <point x="458" y="421"/>
      <point x="552" y="244"/>
      <point x="782" y="244" type="curve" smooth="yes"/>
      <point x="865" y="244"/>
      <point x="942" y="267"/>
      <point x="998" y="341" type="curve"/>
      <point x="1055" y="275"/>
      <point x="1141" y="244"/>
      <point x="1267" y="244" type="curve" smooth="yes"/>
      <point x="1560" y="244"/>
      <point x="1650" y="454"/>
      <point x="1650" y="655" type="curve" smooth="yes"/>
      <point x="1650" y="1070"/>
      <point x="1432" y="1340"/>
      <point x="867" y="1340" type="curve" smooth="yes"/>
      <point x="312" y="1340"/>
      <point x="69" y="1060"/>
      <point x="69" y="655" type="curve" smooth="yes"/>
      <point x="69" y="159"/>
      <point x="261" y="-108"/>
      <point x="951" y="-108" type="curve" smooth="yes"/>
      <point x="1064" y="-108"/>
      <point x="1192" y="-86"/>
      <point x="1390" y="-61" type="curve"/>
    </contour>
  </outline>
</glyph>
<glyph name="A" format="1">
  <advance width="1534"/>
  <unicode hex="0041"/>
  <outline>
    <contour>
      <point x="1091" y="0" type="line"/>
      <point x="1448" y="0" type="line"/>
      <point x="1005" y="1490" type="line"/>
      <point x="515" y="1490" type="line"/>
      <point x="86" y="0" type="line"/>
      <point x="433" y="0" type="line"/>
      <point x="767" y="1214" type="line"/>
    </contour>
    <contour>
      <point x="493" y="503" type="line"/>
      <point x="493" y="280" type="line"/>
      <point x="1041" y="280" type="line"/>
      <point x="1041" y="503" type="line"/>
    </contour>
  </outline>
</glyph>
<glyph name="B" format="1">
  <advance width="1489.58591298"/>
  <unicode hex="0042"/>
  <outline>
    <contour>
      <point x="190" y="0" type="line"/>
      <point x="850" y="0" type="line" smooth="yes"/>
      <point x="1222" y="0"/>
      <point x="1365" y="150"/>
      <point x="1354" y="469" type="curve"/>
      <point x="1354" y="666"/>
      <point x="1326" y="794"/>
      <point x="1105" y="817" type="curve"/>
      <point x="1268" y="853"/>
      <point x="1312" y="945"/>
      <point x="1312" y="1105" type="curve" smooth="yes"/>
      <point x="1312" y="1376"/>
      <point x="1193" y="1490"/>
      <point x="774" y="1490" type="curve" smooth="yes"/>
      <point x="190" y="1490" type="line"/>
    </contour>
    <contour>
      <point x="529" y="904" type="line"/>
      <point x="529" y="1264" type="line"/>
      <point x="761" y="1264" type="line" smooth="yes"/>
      <point x="943" y="1264"/>
      <point x="964" y="1233"/>
      <point x="964" y="1102" type="curve" smooth="yes"/>
      <point x="964" y="967"/>
      <point x="959" y="904"/>
      <point x="790" y="904" type="curve" smooth="yes"/>
    </contour>
    <contour>
      <point x="529" y="234" type="line"/>
      <point x="529" y="706" type="line"/>
      <point x="793" y="706" type="line" smooth="yes"/>
      <point x="1015" y="706"/>
      <point x="1015" y="623"/>
      <point x="1015" y="470" type="curve" smooth="yes"/>
      <point x="1015" y="278"/>
      <point x="1011" y="234"/>
      <point x="777" y="234" type="curve" smooth="yes"/>
    </contour>
  </outline>
</glyph>
<glyph name="C" format="1">
  <advance width="1552"/>
  <unicode hex="0043"/>
  <outline>
    <contour>
      <point x="1406" y="904" type="line"/>
      <point x="1406" y="987" type="line" smooth="yes"/>
      <point x="1406" y="1282"/>
      <point x="1325" y="1518"/>
      <point x="794" y="1518" type="curve"/>
      <point x="246" y="1518"/>
      <point x="156" y="1288"/>
      <point x="156" y="993" type="curve" smooth="yes"/>
      <point x="156" y="483" type="line" smooth="yes"/>
      <point x="156" y="196"/>
      <point x="249" y="-29"/>
      <point x="794" y="-29" type="curve"/>
      <point x="1327" y="-29"/>
      <point x="1406" y="203"/>
      <point x="1406" y="490" type="curve" smooth="yes"/>
      <point x="1406" y="594" type="line"/>
      <point x="1072" y="594" type="line"/>
      <point x="1072" y="454" type="line" smooth="yes"/>
      <point x="1072" y="276"/>
      <point x="1004" y="237"/>
      <point x="794" y="237" type="curve" smooth="yes"/>
      <point x="587" y="237"/>
      <point x="495" y="275"/>
      <point x="495" y="454" type="curve" smooth="yes"/>
      <point x="495" y="1028" type="line" smooth="yes"/>
      <point x="495" y="1206"/>
      <point x="589" y="1252"/>
      <point x="794" y="1252" type="curve" smooth="yes"/>
      <point x="1001" y="1252"/>
      <point x="1072" y="1200"/>
      <point x="1072" y="1028" type="curve" smooth="yes"/>
      <point x="1072" y="904" type="line"/>
    </contour>
  </outline>
</glyph>
<glyph name="D" format="1">
  <advance width="1544"/>
  <unicode hex="0044"/>
  <outline>
    <contour>
      <point x="1049" y="473" type="line" smooth="yes"/>
      <point x="1049" y="355"/>
      <point x="1038" y="266"/>
      <point x="828" y="266" type="curve" smooth="yes"/>
      <point x="529" y="266" type="line"/>
      <point x="529" y="1223" type="line"/>
      <point x="828" y="1223" type="line" smooth="yes"/>
      <point x="1035" y="1223"/>
      <point x="1049" y="1125"/>
      <point x="1049" y="1013" type="curve" smooth="yes"/>
    </contour>
    <contour>
      <point x="857" y="0" type="line" smooth="yes"/>
      <point x="1293" y="0"/>
      <point x="1388" y="232"/>
      <point x="1388" y="519" type="curve" smooth="yes"/>
      <point x="1388" y="962" type="line" smooth="yes"/>
      <point x="1388" y="1257"/>
      <point x="1296" y="1490"/>
      <point x="857" y="1490" type="curve" smooth="yes"/>
      <point x="190" y="1490" type="line"/>
      <point x="190" y="0" type="line"/>
    </contour>
  </outline>
</glyph>
<glyph name="G" format="1">
  <advance width="1577"/>
  <unicode hex="0047"/>
  <outline>
    <contour>
      <point x="1336" y="0" type="curve"/>
      <point x="1407" y="0" type="line"/>
      <point x="1407" y="766" type="line"/>
      <point x="859" y="766" type="line"/>
      <point x="859" y="550" type="line"/>
      <point x="1136" y="550" type="line"/>
      <point x="1136" y="550"/>
      <point x="1336" y="0"/>
    </contour>
    <component base="C"/>
  </outline>
</glyph>
<glyph name="H" format="1">
  <advance width="1599"/>
  <unicode hex="0048"/>
  <outline>
    <contour>
      <point x="190" y="0" type="line"/>
      <point x="529" y="0" type="line"/>
      <point x="529" y="596" type="line"/>
      <point x="1071" y="596" type="line"/>
      <point x="1071" y="0" type="line"/>
      <point x="1409" y="0" type="line"/>
      <point x="1409" y="1490" type="line"/>
      <point x="1071" y="1490" type="line"/>
      <point x="1071" y="866" type="line"/>
      <point x="529" y="866" type="line"/>
      <point x="529" y="1490" type="line"/>
      <point x="190" y="1490" type="line"/>
    </contour>
  </outline>
</glyph>
<glyph name="I" format="1">
  <advance width="1233"/>
  <unicode hex="0049"/>
  <outline>
    <contour>
      <point x="1106" y="0" type="curve"/>
      <point x="1106" y="254" type="line"/>
      <point x="127" y="254" type="line"/>
      <point x="127" y="0" type="line"/>
      <point x="127" y="0"/>
      <point x="1106" y="0"/>
    </contour>
    <contour>
      <point x="1106" y="1236" type="curve"/>
      <point x="1106" y="1490" type="line"/>
      <point x="127" y="1490" type="line"/>
      <point x="127" y="1236" type="line"/>
      <point x="127" y="1236"/>
      <point x="1106" y="1236"/>
    </contour>
    <contour>
      <point x="447" y="0" type="line"/>
      <point x="786" y="0" type="line"/>
      <point x="786" y="1490" type="line"/>
      <point x="447" y="1490" type="line"/>
    </contour>
  </outline>
</glyph>
<glyph name="J" format="1">
  <advance width="1238"/>
  <unicode hex="004A"/>
  <outline>
    <contour>
      <point x="782" y="1236" type="line"/>
      <point x="998" y="1236" type="line"/>
      <point x="998" y="1490" type="line"/>
      <point x="282" y="1490" type="line"/>
      <point x="282" y="1236" type="line"/>
    </contour>
    <contour>
      <point x="47" y="66" type="line"/>
      <point x="205" y="-7"/>
      <point x="354" y="-39"/>
      <point x="487" y="-39" type="curve" smooth="yes"/>
      <point x="820" y="-39"/>
      <point x="1048" y="130"/>
      <point x="1048" y="418" type="curve" smooth="yes"/>
      <point x="1048" y="1490" type="line"/>
      <point x="709" y="1490" type="line"/>
      <point x="709" y="451" type="line" smooth="yes"/>
      <point x="709" y="350"/>
      <point x="646" y="244"/>
      <point x="462" y="244" type="curve" smooth="yes"/>
      <point x="377" y="244"/>
      <point x="266" y="266"/>
      <point x="124" y="323" type="curve"/>
    </contour>
  </outline>
</glyph>
<glyph name="K" format="1">
  <advance width="1453"/>
  <unicode hex="004B"/>
  <outline>
    <contour>
      <point x="190" y="0" type="line"/>
      <point x="529" y="0" type="line"/>
      <point x="529" y="584" type="line"/>
      <point x="614" y="685" type="line"/>
      <point x="1024" y="0" type="line"/>
      <point x="1412" y="0" type="line"/>
      <point x="928" y="800" type="line"/>
      <point x="1371" y="1490" type="line"/>
      <point x="997" y="1490" type="line"/>
      <point x="529" y="817" type="line"/>
      <point x="529" y="1490" type="line"/>
      <point x="190" y="1490" type="line"/>
    </contour>
  </outline>
</glyph>
<glyph name="M" format="1">
  <advance width="1911"/>
  <unicode hex="004D"/>
  <outline>
    <contour>
      <point x="190" y="0" type="line"/>
      <point x="515" y="0" type="line"/>
      <point x="515" y="1074" type="line"/>
      <point x="845" y="399" type="line"/>
      <point x="1066" y="399" type="line"/>
      <point x="1396" y="1078" type="line"/>
      <point x="1396" y="0" type="line"/>
      <point x="1721" y="0" type="line"/>
      <point x="1719" y="1490" type="line"/>
      <point x="1275" y="1490" type="line"/>
      <point x="955" y="855" type="line"/>
      <point x="624" y="1490" type="line"/>
      <point x="190" y="1490" type="line"/>
    </contour>
  </outline>
</glyph>
<glyph name="N" format="1">
  <advance width="1620"/>
  <unicode hex="004E"/>
  <outline>
    <contour>
      <point x="190" y="0" type="line"/>
      <point x="493" y="0" type="line"/>
      <point x="493" y="868" type="line"/>
      <point x="1184" y="0" type="line"/>
      <point x="1430" y="0" type="line"/>
      <point x="1430" y="1490" type="line"/>
      <point x="1130" y="1490" type="line"/>
      <point x="1130" y="612" type="line"/>
      <point x="447" y="1490" type="line"/>
      <point x="190" y="1490" type="line"/>
    </contour>
  </outline>
</glyph>
<glyph name="O" format="1">
  <advance width="1577"/>
  <unicode hex="004F"/>
  <outline>
    <contour>
      <point x="1082" y="453" type="line" smooth="yes"/>
      <point x="1082" y="275"/>
      <point x="1010" y="237"/>
      <point x="800" y="237" type="curve" smooth="yes"/>
      <point x="593" y="237"/>
      <point x="495" y="274"/>
      <point x="495" y="453" type="curve" smooth="yes"/>
      <point x="495" y="1034" type="line" smooth="yes"/>
      <point x="495" y="1212"/>
      <point x="595" y="1252"/>
      <point x="800" y="1252" type="curve" smooth="yes"/>
      <point x="1007" y="1252"/>
      <point x="1082" y="1206"/>
      <point x="1082" y="1034" type="curve" smooth="yes"/>
    </contour>
    <contour>
      <point x="1327.0" y="-29.0"/>
      <point x="1421" y="217"/>
      <point x="1421" y="504" type="curve" smooth="yes"/>
      <point x="1421" y="977" type="line" smooth="yes"/>
      <point x="1421" y="1272"/>
      <point x="1330.0" y="1518.0"/>
      <point x="800" y="1518" type="curve"/>
      <point x="246.0" y="1518.0"/>
      <point x="156" y="1288"/>
      <point x="156" y="993" type="curve" smooth="yes"/>
      <point x="156" y="487" type="line" smooth="yes"/>
      <point x="156" y="200"/>
      <point x="249.0" y="-29.0"/>
      <point x="800" y="-29" type="curve"/>
    </contour>
  </outline>
</glyph>
<glyph name="Q" format="1">
  <advance width="1577"/>
  <unicode hex="0051"/>
  <outline>
    <contour>
      <point x="608" y="-10" type="line"/>
      <point x="904" y="-485" type="line"/>
      <point x="1114" y="-362" type="line"/>
      <point x="877" y="50" type="line"/>
    </contour>
    <component base="O"/>
  </outline>
</glyph>
<glyph name="R" format="1">
  <advance width="1523.0"/>
  <unicode hex="0052"/>
  <outline>
    <contour>
      <point x="810.0" y="594" type="line"/>
      <point x="1030.0" y="0" type="line"/>
      <point x="1391.0" y="0" type="line"/>
      <point x="1124.0" y="652" type="line"/>
    </contour>
    <contour>
      <point x="190.0" y="0.0" type="line"/>
      <point x="529.0" y="0.0" type="line"/>
      <point x="529.0" y="554" type="line"/>
      <point x="871.0" y="554" type="line"/>
      <point x="1358.0" y="554"/>
      <point x="1381.0" y="819"/>
      <point x="1381.0" y="1035" type="curve" smooth="yes"/>
      <point x="1381.0" y="1275"/>
      <point x="1314.0" y="1490"/>
      <point x="856.0" y="1490" type="curve" smooth="yes"/>
      <point x="190.0" y="1490.0" type="line"/>
    </contour>
    <contour>
      <point x="529.0" y="792" type="line"/>
      <point x="529.0" y="1252.0" type="line"/>
      <point x="907.0" y="1252" type="line" smooth="yes"/>
      <point x="1039.0" y="1252"/>
      <point x="1061.0" y="1136"/>
      <point x="1061.0" y="1024" type="curve" smooth="yes"/>
      <point x="1061.0" y="903"/>
      <point x="1042.0" y="792"/>
      <point x="900.0" y="792" type="curve" smooth="yes"/>
    </contour>
  </outline>
</glyph>
<glyph name="S" format="1">
  <advance width="1290"/>
  <unicode hex="0053"/>
  <outline>
    <contour>
      <point x="232" y="384" type="line"/>
      <point x="291" y="347"/>
      <point x="513" y="255"/>
      <point x="659" y="255" type="curve" smooth="yes"/>
      <point x="777" y="255"/>
      <point x="849" y="322"/>
      <point x="849" y="410" type="curve" smooth="yes"/>
      <point x="849" y="485"/>
      <point x="820" y="512"/>
      <point x="635" y="595" type="curve" smooth="yes"/>
      <point x="437" y="682" type="line" smooth="yes"/>
      <point x="195" y="790"/>
      <point x="136" y="931"/>
      <point x="136" y="1077" type="curve" smooth="yes"/>
      <point x="136" y="1362"/>
      <point x="357" y="1520"/>
      <point x="661" y="1520" type="curve" smooth="yes"/>
      <point x="833" y="1520"/>
      <point x="989" y="1468"/>
      <point x="1143" y="1381" type="curve"/>
      <point x="1022" y="1138" type="line"/>
      <point x="937" y="1182"/>
      <point x="801" y="1240"/>
      <point x="683" y="1245" type="curve" smooth="yes"/>
      <point x="560" y="1250"/>
      <point x="481" y="1193"/>
      <point x="481" y="1108" type="curve" smooth="yes"/>
      <point x="481" y="1012"/>
      <point x="538" y="986"/>
      <point x="693" y="916" type="curve" smooth="yes"/>
      <point x="881" y="831" type="line" smooth="yes"/>
      <point x="1069" y="746"/>
      <point x="1178" y="648"/>
      <point x="1178" y="438" type="curve" smooth="yes"/>
      <point x="1178" y="186"/>
      <point x="1052" y="-24"/>
      <point x="660" y="-24" type="curve" smooth="yes"/>
      <point x="465" y="-24"/>
      <point x="237" y="58"/>
      <point x="122" y="128" type="curve"/>
    </contour>
  </outline>
</glyph>
<glyph name="T" format="1">
  <advance width="1233"/>
  <unicode hex="0054"/>
  <outline>
    <contour>
      <point x="432" y="0" type="line"/>
      <point x="771" y="0" type="line"/>
      <point x="771" y="1236" type="line"/>
      <point x="1171" y="1236" type="line"/>
      <point x="1171" y="1490" type="line"/>
      <point x="62" y="1490" type="line"/>
      <point x="62" y="1236" type="line"/>
      <point x="432" y="1236" type="line"/>
    </contour>
  </outline>
</glyph>
<glyph name="U" format="1">
  <advance width="1582"/>
  <unicode hex="0055"/>
  <outline>
    <contour>
      <point x="1072" y="1490" type="line"/>
      <point x="1072" y="457" type="line" smooth="yes"/>
      <point x="1072" y="297"/>
      <point x="1010" y="237"/>
      <point x="800" y="237" type="curve" smooth="yes"/>
      <point x="593" y="237"/>
      <point x="510" y="293"/>
      <point x="510" y="457" type="curve" smooth="yes"/>
      <point x="510" y="1490" type="line"/>
      <point x="171" y="1490" type="line"/>
      <point x="171" y="466" type="line" smooth="yes"/>
      <point x="171" y="179"/>
      <point x="281.0" y="-24.0"/>
      <point x="800" y="-24" type="curve"/>
      <point x="1318.0" y="-24.0"/>
      <point x="1411" y="196"/>
      <point x="1411" y="483" type="curve" smooth="yes"/>
      <point x="1411" y="1490" type="line"/>
    </contour>
  </outline>
</glyph>
<glyph name="W" format="1">
  <advance width="1998"/>
  <unicode hex="0057"/>
  <outline>
    <contour>
      <point x="434" y="0" type="line"/>
      <point x="737" y="0" type="line"/>
      <point x="987" y="975" type="line"/>
      <point x="1262" y="0" type="line"/>
      <point x="1559" y="0" type="line"/>
      <point x="1931" y="1490" type="line"/>
      <point x="1594" y="1490" type="line"/>
      <point x="1394" y="519" type="line"/>
      <point x="1118" y="1490" type="line"/>
      <point x="851" y="1490" type="line"/>
      <point x="623" y="503" type="line"/>
      <point x="404" y="1490" type="line"/>
      <point x="67" y="1490" type="line"/>
    </contour>
  </outline>
</glyph>
<glyph name="X" format="1">
  <advance width="1390"/>
  <unicode hex="0058"/>
  <outline>
    <contour>
      <point x="28" y="0" type="line"/>
      <point x="381" y="0" type="line"/>
      <point x="1344" y="1490" type="line"/>
      <point x="967" y="1490" type="line"/>
    </contour>
    <contour>
      <point x="988" y="0" type="line"/>
      <point x="1362" y="0" type="line"/>
      <point x="392" y="1490" type="line"/>
      <point x="36" y="1490" type="line"/>
    </contour>
  </outline>
</glyph>
<glyph name="Y" format="1">
  <advance width="1423"/>
  <unicode hex="0059"/>
  <outline>
    <contour>
      <point x="542" y="0" type="line"/>
      <point x="881" y="0" type="line"/>
      <point x="881" y="505" type="line"/>
      <point x="1382" y="1490" type="line"/>
      <point x="1041" y="1490" type="line"/>
      <point x="714" y="862" type="line"/>
      <point x="397" y="1490" type="line"/>
      <point x="41" y="1490" type="line"/>
      <point x="542" y="505" type="line"/>
    </contour>
  </outline>
</glyph>
<glyph name="Z" format="1">
  <advance width="1190"/>
  <unicode hex="005A"/>
  <outline>
    <contour>
      <point x="124" y="0" type="line"/>
      <point x="1097" y="0" type="line"/>
      <point x="1097" y="207" type="line"/>
      <point x="489" y="207" type="line"/>
      <point x="1086" y="1299" type="line"/>
      <point x="1086" y="1489" type="line"/>
      <point x="150" y="1489" type="line"/>
      <point x="150" y="1282" type="line"/>
      <point x="718" y="1282" type="line"/>
      <point x="124" y="189" type="line"/>
    </contour>
  </outline>
</glyph>
<glyph name="a" format="1">
  <advance width="1207.8249851"/>
  <unicode hex="0061"/>
  <outline>
    <contour>
      <point x="729.824985103" y="253" type="line"/>
      <point x="678.824985103" y="196"/>
      <point x="598.824985103" y="181"/>
      <point x="559.824985103" y="177" type="curve" smooth="yes"/>
      <point x="553.824985103" y="176"/>
      <point x="547.824985103" y="176"/>
      <point x="541.824985103" y="176" type="curve" smooth="yes"/>
      <point x="464.824985103" y="176"/>
      <point x="426.824985103" y="223"/>
      <point x="419.824985103" y="282" type="curve" smooth="yes"/>
      <point x="418.824985103" y="288"/>
      <point x="418.824985103" y="294"/>
      <point x="418.824985103" y="301" type="curve" smooth="yes"/>
      <point x="418.824985103" y="344"/>
      <point x="436.824985103" y="404"/>
      <point x="527.824985103" y="430" type="curve" smooth="yes"/>
      <point x="598.824985103" y="450"/>
      <point x="693.824985103" y="478"/>
      <point x="729.824985103" y="508" type="curve"/>
    </contour>
    <contour>
      <point x="985.824985103" y="-17" type="curve" smooth="yes"/>
      <point x="1016.8249851" y="-17"/>
      <point x="1053.8249851" y="-14"/>
      <point x="1147.8249851" y="0" type="curve"/>
      <point x="1147.8249851" y="181" type="line"/>
      <point x="1083.8249851" y="181"/>
      <point x="1038.8249851" y="186"/>
      <point x="1038.8249851" y="278" type="curve" smooth="yes"/>
      <point x="1038.8249851" y="739" type="line" smooth="yes"/>
      <point x="1038.8249851" y="962"/>
      <point x="922.824985103" y="1104"/>
      <point x="583.824985103" y="1104" type="curve" smooth="yes"/>
      <point x="281.824985103" y="1104"/>
      <point x="150.824985103" y="952"/>
      <point x="150.824985103" y="745" type="curve" smooth="yes"/>
      <point x="150.824985103" y="720" type="line"/>
      <point x="438.824985103" y="720" type="line"/>
      <point x="438.824985103" y="759" type="line" smooth="yes"/>
      <point x="438.824985103" y="842"/>
      <point x="474.824985103" y="895"/>
      <point x="577.824985103" y="895" type="curve" smooth="yes"/>
      <point x="677.824985103" y="895"/>
      <point x="728.824985103" y="862"/>
      <point x="728.824985103" y="777" type="curve"/>
      <point x="728.824985103" y="629"/>
      <point x="637.824985103" y="639"/>
      <point x="435.824985103" y="577" type="curve" smooth="yes"/>
      <point x="146.824985103" y="489"/>
      <point x="114.824985103" y="419"/>
      <point x="121.824985103" y="262" type="curve" smooth="yes"/>
      <point x="129.824985103" y="77"/>
      <point x="256.824985103" y="-24"/>
      <point x="422.824985103" y="-24" type="curve" smooth="yes"/>
      <point x="561.824985103" y="-24"/>
      <point x="690.824985103" y="56"/>
      <point x="753.824985103" y="134" type="curve"/>
      <point x="795.824985103" y="53"/>
      <point x="832.824985103" y="-17"/>
    </contour>
  </outline>
</glyph>
<glyph name="b" format="1">
  <advance width="1229"/>
  <unicode hex="0062"/>
  <outline>
    <contour>
      <point x="461" y="851" type="line"/>
      <point x="461" y="851"/>
      <point x="526" y="894"/>
      <point x="629" y="894" type="curve" smooth="yes"/>
      <point x="742" y="894"/>
      <point x="797" y="860"/>
      <point x="797" y="761" type="curve" smooth="yes"/>
      <point x="797" y="319" type="line" smooth="yes"/>
      <point x="797" y="220"/>
      <point x="732" y="186"/>
      <point x="629" y="186" type="curve" smooth="yes"/>
      <point x="516" y="186"/>
      <point x="421" y="220"/>
      <point x="421" y="319" type="curve"/>
      <point x="461" y="411" type="line"/>
      <point x="158" y="411" type="line"/>
      <point x="158" y="400" type="line" smooth="yes"/>
      <point x="158" y="303.209"/>
      <point x="337.137" y="-24.7198"/>
      <point x="682.305" y="-24.7198" type="curve" smooth="yes"/>
      <point x="936.701" y="-24.7198"/>
      <point x="1107" y="111.404"/>
      <point x="1107" y="319" type="curve" smooth="yes"/>
      <point x="1107" y="761" type="line" smooth="yes"/>
      <point x="1107" y="932.123"/>
      <point x="1012" y="1104"/>
      <point x="697" y="1104" type="curve" smooth="yes"/>
      <point x="364" y="1104"/>
      <point x="181.667" y="811.654"/>
      <point x="158" y="659" type="curve"/>
      <point x="158" y="649" type="line"/>
      <point x="461" y="649" type="line"/>
    </contour>
    <contour>
      <point x="150" y="0" type="line"/>
      <point x="361" y="0" type="line"/>
      <point x="461" y="225" type="line"/>
      <point x="461" y="1490" type="line"/>
      <point x="150" y="1490" type="line"/>
    </contour>
  </outline>
</glyph>
<glyph name="c" format="1">
  <advance width="1186"/>
  <unicode hex="0063"/>
  <outline>
    <contour>
      <point x="768" y="319" type="line" smooth="yes"/>
      <point x="768" y="220"/>
      <point x="703" y="186"/>
      <point x="600" y="186" type="curve" smooth="yes"/>
      <point x="487" y="186"/>
      <point x="432" y="220"/>
      <point x="432" y="319" type="curve" smooth="yes"/>
      <point x="432" y="761" type="line" smooth="yes"/>
      <point x="432" y="860"/>
      <point x="497" y="894"/>
      <point x="600" y="894" type="curve" smooth="yes"/>
      <point x="713" y="894"/>
      <point x="768" y="860"/>
      <point x="768" y="761" type="curve" smooth="yes"/>
      <point x="768" y="669" type="line"/>
      <point x="1071" y="669" type="line"/>
      <point x="1071" y="784" type="line" smooth="yes"/>
      <point x="1071" y="1006"/>
      <point x="894" y="1104"/>
      <point x="593" y="1104" type="curve" smooth="yes"/>
      <point x="304" y="1104"/>
      <point x="122" y="982"/>
      <point x="122" y="761" type="curve" smooth="yes"/>
      <point x="122" y="319" type="line" smooth="yes"/>
      <point x="122" y="137"/>
      <point x="207" y="-24"/>
      <point x="596" y="-24" type="curve" smooth="yes"/>
      <point x="963" y="-24"/>
      <point x="1071" y="102"/>
      <point x="1071" y="281" type="curve" smooth="yes"/>
      <point x="1071" y="431" type="line"/>
      <point x="768" y="431" type="line"/>
    </contour>
  </outline>
</glyph>
<glyph name="d" format="1">
  <advance width="1229.0"/>
  <unicode hex="0064"/>
  <outline>
    <contour>
      <point x="787.0" y="851" type="line"/>
      <point x="787.0" y="851"/>
      <point x="711.0" y="894"/>
      <point x="608.0" y="894" type="curve" smooth="yes"/>
      <point x="495.0" y="894"/>
      <point x="432.0" y="860.0"/>
      <point x="432.0" y="761.0" type="curve" smooth="yes"/>
      <point x="432.0" y="319.0" type="line" smooth="yes"/>
      <point x="432.0" y="220.0"/>
      <point x="488.0" y="186.0"/>
      <point x="600.0" y="186.0" type="curve" smooth="yes"/>
      <point x="713.0" y="186.0"/>
      <point x="828.0" y="220"/>
      <point x="828.0" y="319" type="curve"/>
      <point x="1071.0" y="421" type="line"/>
      <point x="1071.0" y="410" type="line" smooth="yes"/>
      <point x="1071.0" y="313"/>
      <point x="904.0" y="-25.0"/>
      <point x="559.0" y="-25.0" type="curve" smooth="yes"/>
      <point x="274.0" y="-25.0"/>
      <point x="122.0" y="98.0"/>
      <point x="122.0" y="319.0" type="curve" smooth="yes"/>
      <point x="122.0" y="761.0" type="line" smooth="yes"/>
      <point x="122.0" y="953.0"/>
      <point x="261.0" y="1104"/>
      <point x="576.0" y="1104" type="curve" smooth="yes"/>
      <point x="697.0" y="1104"/>
      <point x="855.0" y="1043"/>
      <point x="937.0" y="982" type="curve"/>
    </contour>
    <contour>
      <point x="1079.0" y="0.0" type="line"/>
      <point x="868.0" y="0.0" type="line"/>
      <point x="768.0" y="214" type="line"/>
      <point x="768.0" y="1490.0" type="line"/>
      <point x="1079.0" y="1490.0" type="line"/>
    </contour>
  </outline>
</glyph>
<glyph name="e" format="1">
  <advance width="1186"/>
  <unicode hex="0065"/>
  <outline>
    <contour>
      <point x="591" y="-24" type="curve"/>
      <point x="351" y="-24"/>
      <point x="122" y="35"/>
      <point x="122" y="319" type="curve" smooth="yes"/>
      <point x="122" y="760" type="line" smooth="yes"/>
      <point x="122" y="987"/>
      <point x="320" y="1104"/>
      <point x="589" y="1104" type="curve" smooth="yes"/>
      <point x="937" y="1104"/>
      <point x="1071" y="962"/>
      <point x="1071" y="740" type="curve" smooth="yes"/>
      <point x="1071" y="515" type="line"/>
      <point x="432" y="515" type="line"/>
      <point x="432" y="318" type="line" smooth="yes"/>
      <point x="432" y="211"/>
      <point x="499" y="186"/>
      <point x="598" y="186" type="curve" smooth="yes"/>
      <point x="701" y="186"/>
      <point x="768" y="212"/>
      <point x="768" y="319" type="curve" smooth="yes"/>
      <point x="768" y="395" type="line"/>
      <point x="1071" y="395" type="line"/>
      <point x="1071" y="319" type="line" smooth="yes"/>
      <point x="1071" y="39"/>
      <point x="881" y="-24"/>
    </contour>
    <contour>
      <point x="432" y="664" type="line"/>
      <point x="768" y="664" type="line"/>
      <point x="768" y="760" type="line" smooth="yes"/>
      <point x="768" y="875"/>
      <point x="692" y="894"/>
      <point x="598" y="894" type="curve" smooth="yes"/>
      <point x="507" y="894"/>
      <point x="432" y="866"/>
      <point x="432" y="760" type="curve" smooth="yes"/>
    </contour>
  </outline>
</glyph>
<glyph name="f" format="1">
  <advance width="815"/>
  <unicode hex="0066"/>
  <outline>
    <contour>
      <point x="225" y="0" type="line"/>
      <point x="535" y="0" type="line"/>
      <point x="535" y="894" type="line"/>
      <point x="731" y="894" type="line"/>
      <point x="731" y="1080" type="line"/>
      <point x="535" y="1080" type="line"/>
      <point x="535" y="1130" type="line" smooth="yes"/>
      <point x="535" y="1201"/>
      <point x="539" y="1255"/>
      <point x="658" y="1255" type="curve" smooth="yes"/>
      <point x="734" y="1255" type="line"/>
      <point x="734" y="1468" type="line"/>
      <point x="565" y="1468" type="line" smooth="yes"/>
      <point x="353" y="1468"/>
      <point x="225" y="1363"/>
      <point x="225" y="1082" type="curve"/>
      <point x="225" y="1080" type="line"/>
      <point x="98" y="1080" type="line"/>
      <point x="98" y="894" type="line"/>
      <point x="225" y="894" type="line"/>
    </contour>
  </outline>
</glyph>
<glyph name="g" format="1">
  <advance width="1228"/>
  <unicode hex="0067"/>
  <outline>
    <contour>
      <point x="768" y="851" type="line"/>
      <point x="768" y="851"/>
      <point x="703" y="894"/>
      <point x="600" y="894" type="curve" smooth="yes"/>
      <point x="487" y="894"/>
      <point x="432" y="860"/>
      <point x="432" y="761" type="curve" smooth="yes"/>
      <point x="432" y="361" type="line" smooth="yes"/>
      <point x="432" y="262"/>
      <point x="497" y="228"/>
      <point x="600" y="228" type="curve" smooth="yes"/>
      <point x="713" y="228"/>
      <point x="808" y="244"/>
      <point x="808" y="343" type="curve"/>
      <point x="768" y="435" type="line"/>
      <point x="1071" y="435" type="line"/>
      <point x="1071" y="424" type="line" smooth="yes"/>
      <point x="1071" y="327"/>
      <point x="893" y="28"/>
      <point x="548" y="28" type="curve" smooth="yes"/>
      <point x="293" y="28"/>
      <point x="122" y="153"/>
      <point x="122" y="361" type="curve" smooth="yes"/>
      <point x="122" y="761" type="line" smooth="yes"/>
      <point x="122" y="932"/>
      <point x="218" y="1104"/>
      <point x="533" y="1104" type="curve" smooth="yes"/>
      <point x="866" y="1104"/>
      <point x="1047" y="812"/>
      <point x="1071" y="659" type="curve"/>
      <point x="1071" y="649" type="line"/>
      <point x="768" y="649" type="line"/>
    </contour>
    <contour>
      <point x="1079" y="1081" type="line"/>
      <point x="1079" y="-10" type="line"/>
      <point x="768" y="6" type="line"/>
      <point x="768" y="856" type="line"/>
      <point x="868" y="1081" type="line"/>
    </contour>
    <contour>
      <point x="264" y="-141" type="line"/>
      <point x="380" y="-171"/>
      <point x="473" y="-185"/>
      <point x="545" y="-185" type="curve" smooth="yes"/>
      <point x="704" y="-185"/>
      <point x="768" y="-119"/>
      <point x="768" y="-11" type="curve" smooth="yes"/>
      <point x="768" y="17" type="line"/>
      <point x="1079" y="-10" type="line"/>
      <point x="1079" y="-208"/>
      <point x="961" y="-408"/>
      <point x="587" y="-408" type="curve" smooth="yes"/>
      <point x="459" y="-408"/>
      <point x="275" y="-384"/>
      <point x="202" y="-345" type="curve"/>
    </contour>
  </outline>
</glyph>
<glyph name="h" format="1">
  <advance width="1249"/>
  <unicode hex="0068"/>
  <outline>
    <contour>
      <point x="152" y="0" type="line"/>
      <point x="462" y="0" type="line"/>
      <point x="462" y="760" type="line" smooth="yes"/>
      <point x="462" y="865"/>
      <point x="580" y="894"/>
      <point x="641" y="894" type="curve" smooth="yes"/>
      <point x="705" y="894"/>
      <point x="803" y="879"/>
      <point x="803" y="763" type="curve" smooth="yes"/>
      <point x="803" y="0" type="line"/>
      <point x="1114" y="0" type="line"/>
      <point x="1114" y="804" type="line" smooth="yes"/>
      <point x="1114" y="991"/>
      <point x="970" y="1104"/>
      <point x="788" y="1104" type="curve" smooth="yes"/>
      <point x="641" y="1104"/>
      <point x="500" y="1036"/>
      <point x="462" y="960" type="curve"/>
      <point x="462" y="1490" type="line"/>
      <point x="152" y="1490" type="line"/>
    </contour>
  </outline>
</glyph>
<glyph name="j" format="1">
  <advance width="680"/>
  <unicode hex="006A"/>
  <outline>
    <contour>
      <point x="215" y="1217" type="line"/>
      <point x="525" y="1217" type="line"/>
      <point x="525" y="1478" type="line"/>
      <point x="215" y="1478" type="line"/>
    </contour>
    <contour>
      <point x="3" y="-319" type="line"/>
      <point x="131" y="-319" type="line" smooth="yes"/>
      <point x="426" y="-319"/>
      <point x="528" y="-130"/>
      <point x="528" y="40" type="curve" smooth="yes"/>
      <point x="528" y="1080" type="line"/>
      <point x="218" y="1080" type="line"/>
      <point x="218" y="64" type="line" smooth="yes"/>
      <point x="218" y="21"/>
      <point x="198" y="-108"/>
      <point x="55" y="-108" type="curve" smooth="yes"/>
      <point x="3" y="-108" type="line"/>
    </contour>
  </outline>
</glyph>
<glyph name="k" format="1">
  <advance width="1227"/>
  <unicode hex="006B"/>
  <outline>
    <contour>
      <point x="152" y="0" type="line"/>
      <point x="462" y="0" type="line"/>
      <point x="462" y="398" type="line"/>
      <point x="536" y="476" type="line"/>
      <point x="827" y="0" type="line"/>
      <point x="1201" y="0" type="line"/>
      <point x="804" y="614" type="line"/>
      <point x="1189" y="1080" type="line"/>
      <point x="814" y="1080" type="line"/>
      <point x="462" y="642" type="line"/>
      <point x="462" y="1490" type="line"/>
      <point x="152" y="1490" type="line"/>
    </contour>
  </outline>
</glyph>
<glyph name="l" format="1">
  <advance width="712.0"/>
  <unicode hex="006C"/>
  <outline>
    <contour>
      <point x="152.0" y="1490.0" type="line"/>
      <point x="152.0" y="398.0" type="line" smooth="yes"/>
      <point x="152.0" y="145"/>
      <point x="266.0" y="0.0"/>
      <point x="508.0" y="0.0" type="curve" smooth="yes"/>
      <point x="647.0" y="0.0" type="line"/>
      <point x="647.0" y="220.0" type="line"/>
      <point x="518.0" y="220.0"/>
      <point x="462.0" y="272.0"/>
      <point x="462.0" y="369.0" type="curve" smooth="yes"/>
      <point x="462.0" y="1490.0" type="line"/>
    </contour>
  </outline>
</glyph>
<glyph name="m" format="1">
  <advance width="1832.0"/>
  <unicode hex="006D"/>
  <outline>
    <contour>
      <point x="1079.0" y="760" type="line"/>
      <point x="1079.0" y="865"/>
      <point x="1188.0" y="894"/>
      <point x="1249.0" y="894" type="curve" smooth="yes"/>
      <point x="1313.0" y="894"/>
      <point x="1386.0" y="879"/>
      <point x="1386.0" y="763" type="curve" smooth="yes"/>
      <point x="1386.0" y="0" type="line"/>
      <point x="1697.0" y="0" type="line"/>
      <point x="1697.0" y="804" type="line" smooth="yes"/>
      <point x="1697.0" y="991"/>
      <point x="1559.0" y="1104"/>
      <point x="1377.0" y="1104" type="curve" smooth="yes"/>
      <point x="1230.0" y="1104"/>
      <point x="1105.0" y="1034"/>
      <point x="1047.0" y="961" type="curve" smooth="yes"/>
      <point x="956.0" y="859" type="line"/>
    </contour>
    <contour>
      <point x="152.0" y="0.0" type="line"/>
      <point x="462.0" y="0.0" type="line"/>
      <point x="462.0" y="760.0" type="line" smooth="yes"/>
      <point x="462.0" y="865.0"/>
      <point x="571.0" y="894"/>
      <point x="632.0" y="894" type="curve" smooth="yes"/>
      <point x="696.0" y="894"/>
      <point x="769.0" y="879"/>
      <point x="769.0" y="763" type="curve" smooth="yes"/>
      <point x="769.0" y="0" type="line"/>
      <point x="1080.0" y="0" type="line"/>
      <point x="1080.0" y="804" type="line" smooth="yes"/>
      <point x="1080.0" y="991"/>
      <point x="951.0" y="1104"/>
      <point x="769.0" y="1104" type="curve" smooth="yes"/>
      <point x="622.0" y="1104"/>
      <point x="500.0" y="1031.0"/>
      <point x="462.0" y="944.0" type="curve"/>
      <point x="462.0" y="1080.0" type="line"/>
      <point x="152.0" y="1080.0" type="line"/>
    </contour>
  </outline>
</glyph>
<glyph name="n" format="1">
  <advance width="1264"/>
  <unicode hex="006E"/>
  <outline>
    <contour>
      <point x="152" y="0" type="line"/>
      <point x="462" y="0" type="line"/>
      <point x="462" y="760" type="line" smooth="yes"/>
      <point x="462" y="865"/>
      <point x="585" y="894"/>
      <point x="646" y="894" type="curve" smooth="yes"/>
      <point x="710" y="894"/>
      <point x="819" y="879"/>
      <point x="819" y="763" type="curve" smooth="yes"/>
      <point x="819" y="0" type="line"/>
      <point x="1129" y="0" type="line"/>
      <point x="1129" y="804" type="line" smooth="yes"/>
      <point x="1129" y="991"/>
      <point x="972" y="1104"/>
      <point x="790" y="1104" type="curve" smooth="yes"/>
      <point x="643" y="1104"/>
      <point x="500" y="1031"/>
      <point x="462" y="944" type="curve"/>
      <point x="462" y="1080" type="line"/>
      <point x="152" y="1080" type="line"/>
    </contour>
  </outline>
</glyph>
<glyph name="o" format="1">
  <advance width="1200"/>
  <unicode hex="006F"/>
  <outline>
    <contour>
      <point x="768" y="319" type="curve" smooth="yes"/>
      <point x="768" y="761" type="line" smooth="yes"/>
      <point x="768" y="860"/>
      <point x="713" y="894"/>
      <point x="600" y="894" type="curve" smooth="yes"/>
      <point x="497" y="894"/>
      <point x="432" y="860"/>
      <point x="432" y="761" type="curve" smooth="yes"/>
      <point x="432" y="319" type="line" smooth="yes"/>
      <point x="432" y="220"/>
      <point x="487" y="186"/>
      <point x="600" y="186" type="curve" smooth="yes"/>
      <point x="703" y="186"/>
      <point x="768" y="220"/>
    </contour>
    <contour>
      <point x="1078" y="330" type="line" smooth="yes"/>
      <point x="1078" y="109"/>
      <point x="964" y="-24"/>
      <point x="600" y="-24" type="curve" smooth="yes"/>
      <point x="252" y="-24"/>
      <point x="122" y="108"/>
      <point x="122" y="330" type="curve" smooth="yes"/>
      <point x="122" y="750" type="line" smooth="yes"/>
      <point x="122" y="980"/>
      <point x="316" y="1104"/>
      <point x="600" y="1104" type="curve" smooth="yes"/>
      <point x="884" y="1104"/>
      <point x="1078" y="980"/>
      <point x="1078" y="750" type="curve" smooth="yes"/>
    </contour>
  </outline>
</glyph>
<glyph name="p" format="1">
  <advance width="1231"/>
  <unicode hex="0070"/>
  <outline>
    <contour>
      <point x="463" y="228" type="line"/>
      <point x="463" y="228"/>
      <point x="528" y="186"/>
      <point x="631" y="186" type="curve" smooth="yes"/>
      <point x="744" y="186"/>
      <point x="799" y="219"/>
      <point x="799" y="318" type="curve" smooth="yes"/>
      <point x="799" y="760" type="line" smooth="yes"/>
      <point x="799" y="859"/>
      <point x="744" y="894"/>
      <point x="641" y="894" type="curve" smooth="yes"/>
      <point x="528" y="894"/>
      <point x="423" y="859"/>
      <point x="423" y="760" type="curve"/>
      <point x="463" y="668" type="line"/>
      <point x="160" y="668" type="line"/>
      <point x="160" y="679" type="line" smooth="yes"/>
      <point x="160" y="776"/>
      <point x="349" y="1104"/>
      <point x="694" y="1104" type="curve" smooth="yes"/>
      <point x="949" y="1104"/>
      <point x="1109" y="968"/>
      <point x="1109" y="760" type="curve" smooth="yes"/>
      <point x="1109" y="318" type="line" smooth="yes"/>
      <point x="1109" y="147"/>
      <point x="973" y="-25"/>
      <point x="658" y="-25" type="curve" smooth="yes"/>
      <point x="325" y="-25"/>
      <point x="184" y="267"/>
      <point x="160" y="420" type="curve"/>
      <point x="160" y="430" type="line"/>
      <point x="463" y="430" type="line"/>
    </contour>
    <contour>
      <point x="152" y="1080" type="line"/>
      <point x="363" y="1080" type="line"/>
      <point x="463" y="854" type="line"/>
      <point x="463" y="-411" type="line"/>
      <point x="152" y="-411" type="line"/>
    </contour>
  </outline>
</glyph>
<glyph name="q" format="1">
  <advance width="1227"/>
  <unicode hex="0071"/>
  <outline>
    <contour>
      <point x="768" y="228" type="line"/>
      <point x="768" y="228"/>
      <point x="703" y="186"/>
      <point x="600" y="186" type="curve" smooth="yes"/>
      <point x="487" y="186"/>
      <point x="432" y="219"/>
      <point x="432" y="318" type="curve" smooth="yes"/>
      <point x="432" y="760" type="line" smooth="yes"/>
      <point x="432" y="859"/>
      <point x="497" y="894"/>
      <point x="600" y="894" type="curve" smooth="yes"/>
      <point x="713" y="894"/>
      <point x="808" y="859"/>
      <point x="808" y="760" type="curve"/>
      <point x="768" y="668" type="line"/>
      <point x="1071" y="668" type="line"/>
      <point x="1071" y="679" type="line" smooth="yes"/>
      <point x="1071" y="776"/>
      <point x="892" y="1104"/>
      <point x="547" y="1104" type="curve" smooth="yes"/>
      <point x="292" y="1104"/>
      <point x="122" y="968"/>
      <point x="122" y="760" type="curve" smooth="yes"/>
      <point x="122" y="318" type="line" smooth="yes"/>
      <point x="122" y="147"/>
      <point x="217" y="-24"/>
      <point x="532" y="-24" type="curve" smooth="yes"/>
      <point x="865" y="-24"/>
      <point x="1047" y="268"/>
      <point x="1071" y="420" type="curve"/>
      <point x="1071" y="430" type="line"/>
      <point x="768" y="430" type="line"/>
    </contour>
    <contour>
      <point x="1079" y="1080" type="line"/>
      <point x="868" y="1080" type="line"/>
      <point x="768" y="854" type="line"/>
      <point x="768" y="-411" type="line"/>
      <point x="1079" y="-411" type="line"/>
    </contour>
  </outline>
</glyph>
<glyph name="r" format="1">
  <advance width="877"/>
  <unicode hex="0072"/>
  <outline>
    <contour>
      <point x="152" y="0" type="line"/>
      <point x="462" y="0" type="line"/>
      <point x="462" y="740" type="line"/>
      <point x="492" y="826"/>
      <point x="707" y="832"/>
      <point x="826" y="842" type="curve"/>
      <point x="832" y="1097" type="line"/>
      <point x="742" y="1111"/>
      <point x="513" y="1044"/>
      <point x="462" y="962" type="curve"/>
      <point x="462" y="1080" type="line"/>
      <point x="152" y="1080" type="line"/>
    </contour>
  </outline>
</glyph>
<glyph name="s" format="1">
  <advance width="1029"/>
  <unicode hex="0073"/>
  <outline>
    <contour>
      <point x="206" y="315" type="line"/>
      <point x="332" y="222"/>
      <point x="448" y="188"/>
      <point x="536" y="188" type="curve"/>
      <point x="596" y="188"/>
      <point x="632" y="220"/>
      <point x="643" y="267" type="curve" smooth="yes"/>
      <point x="645" y="274"/>
      <point x="645" y="281"/>
      <point x="645" y="288" type="curve" smooth="yes"/>
      <point x="645" y="328"/>
      <point x="616" y="366"/>
      <point x="547" y="396" type="curve" smooth="yes" name="inserted"/>
      <point x="334" y="495" type="line" smooth="yes"/>
      <point x="175" y="564"/>
      <point x="115" y="645"/>
      <point x="115" y="784" type="curve" smooth="yes"/>
      <point x="115" y="1013"/>
      <point x="303" y="1104"/>
      <point x="516" y="1104" type="curve" smooth="yes"/>
      <point x="713" y="1104"/>
      <point x="858" y="1022"/>
      <point x="923" y="958" type="curve"/>
      <point x="822" y="793" type="line"/>
      <point x="764" y="839"/>
      <point x="642" y="901"/>
      <point x="536" y="901" type="curve"/>
      <point x="446" y="901"/>
      <point x="412" y="864"/>
      <point x="412" y="805" type="curve" smooth="yes"/>
      <point x="412" y="759"/>
      <point x="448" y="733"/>
      <point x="491" y="714" type="curve" smooth="yes" name="inserted"/>
      <point x="693" y="620" type="line" smooth="yes"/>
      <point x="864" y="545"/>
      <point x="936" y="482"/>
      <point x="936" y="313" type="curve" smooth="yes"/>
      <point x="936" y="125"/>
      <point x="795" y="-24"/>
      <point x="538" y="-24" type="curve" smooth="yes"/>
      <point x="367" y="-24"/>
      <point x="211" y="30"/>
      <point x="92" y="132" type="curve"/>
    </contour>
  </outline>
</glyph>
<glyph name="t" format="1">
  <advance width="866"/>
  <unicode hex="0074"/>
  <outline>
    <contour>
      <point x="183" y="894" type="line"/>
      <point x="183" y="403" type="line" smooth="yes"/>
      <point x="183" y="109"/>
      <point x="380" y="-8"/>
      <point x="718" y="-8" type="curve" smooth="yes"/>
      <point x="783" y="-8" type="line"/>
      <point x="783" y="229" type="line"/>
      <point x="730" y="229" type="line" smooth="yes"/>
      <point x="549" y="229"/>
      <point x="493" y="296"/>
      <point x="493" y="426" type="curve" smooth="yes"/>
      <point x="493" y="894" type="line"/>
      <point x="776" y="894" type="line"/>
      <point x="776" y="1080" type="line"/>
      <point x="493" y="1080" type="line"/>
      <point x="493" y="1433" type="line"/>
      <point x="219" y="1433" type="line"/>
      <point x="192" y="1080" type="line"/>
      <point x="57" y="1080" type="line"/>
      <point x="57" y="894" type="line"/>
    </contour>
  </outline>
</glyph>
<glyph name="u" format="1">
  <advance width="1197"/>
  <unicode hex="0075"/>
  <outline>
    <contour>
      <point x="1076" y="1080" type="line"/>
      <point x="766" y="1080" type="line"/>
      <point x="766" y="320" type="line" smooth="yes"/>
      <point x="766" y="215"/>
      <point x="649" y="186"/>
      <point x="588" y="186" type="curve" smooth="yes"/>
      <point x="524" y="186"/>
      <point x="424" y="201"/>
      <point x="424" y="317" type="curve" smooth="yes"/>
      <point x="424" y="1080" type="line"/>
      <point x="114" y="1080" type="line"/>
      <point x="114" y="276" type="line" smooth="yes"/>
      <point x="114" y="89"/>
      <point x="262" y="-24"/>
      <point x="444" y="-24" type="curve" smooth="yes"/>
      <point x="591" y="-24"/>
      <point x="728" y="49"/>
      <point x="766" y="136" type="curve"/>
      <point x="766" y="0" type="line"/>
      <point x="1076" y="0" type="line"/>
    </contour>
  </outline>
</glyph>
<glyph name="v" format="1">
  <advance width="1078"/>
  <unicode hex="0076"/>
  <outline>
    <contour>
      <point x="365" y="0" type="line"/>
      <point x="713" y="0" type="line"/>
      <point x="1019" y="1080" type="line"/>
      <point x="711" y="1080" type="line"/>
      <point x="552" y="329" type="line"/>
      <point x="356" y="1080" type="line"/>
      <point x="59" y="1080" type="line"/>
    </contour>
  </outline>
</glyph>
<glyph name="w" format="1">
  <advance width="1599"/>
  <unicode hex="0077"/>
  <outline>
    <contour>
      <point x="324" y="0" type="line"/>
      <point x="606" y="0" type="line"/>
      <point x="809" y="692" type="line"/>
      <point x="1000" y="0" type="line"/>
      <point x="1294" y="0" type="line"/>
      <point x="1536" y="1080" type="line"/>
      <point x="1249" y="1080" type="line"/>
      <point x="1113" y="401" type="line"/>
      <point x="920" y="1080" type="line"/>
      <point x="693" y="1080" type="line"/>
      <point x="505" y="414" type="line"/>
      <point x="354" y="1080" type="line"/>
      <point x="63" y="1080" type="line"/>
    </contour>
  </outline>
</glyph>
<glyph name="x" format="1">
  <advance width="1099"/>
  <unicode hex="0078"/>
  <outline>
    <contour>
      <point x="752" y="0" type="line"/>
      <point x="1055" y="0" type="line"/>
      <point x="367.0" y="1080.0" type="line"/>
      <point x="44" y="1080" type="line"/>
    </contour>
    <contour>
      <point x="45" y="0" type="line"/>
      <point x="367" y="0" type="line"/>
      <point x="1055" y="1080" type="line"/>
      <point x="752" y="1080" type="line"/>
    </contour>
  </outline>
</glyph>
<glyph name="z" format="1">
  <advance width="989"/>
  <unicode hex="007A"/>
  <outline>
    <contour>
      <point x="115" y="0" type="line"/>
      <point x="896" y="0" type="line"/>
      <point x="896" y="202" type="line"/>
      <point x="466" y="202" type="line"/>
      <point x="881" y="895" type="line"/>
      <point x="881" y="1080" type="line"/>
      <point x="134" y="1080" type="line"/>
      <point x="134" y="879" type="line"/>
      <point x="508" y="879" type="line"/>
      <point x="115" y="189" type="line"/>
    </contour>
  </outline>
</glyph>
<glyph name="cent" format="1">
  <advance width="887"/>
  <unicode hex="00A2"/>
  <outline>
    <contour>
      <point x="385" y="-218" type="line"/>
      <point x="519" y="-218" type="line"/>
      <point x="519" y="26" type="line"/>
      <point x="692" y="43"/>
      <point x="825" y="159"/>
      <point x="825" y="330" type="curve" smooth="yes"/>
      <point x="825" y="435" type="line"/>
      <point x="549" y="435" type="line"/>
      <point x="550" y="370"/>
      <point x="552" y="359"/>
      <point x="552" y="348" type="curve" smooth="yes"/>
      <point x="552" y="281"/>
      <point x="531" y="245"/>
      <point x="446" y="245" type="curve" smooth="yes"/>
      <point x="360" y="245"/>
      <point x="351" y="300"/>
      <point x="351" y="336" type="curve" smooth="yes"/>
      <point x="351" y="756" type="line" smooth="yes"/>
      <point x="351" y="791"/>
      <point x="367" y="838"/>
      <point x="446" y="838" type="curve" smooth="yes"/>
      <point x="540" y="838"/>
      <point x="551" y="787"/>
      <point x="550" y="713" type="curve" smooth="yes"/>
      <point x="549" y="652" type="line"/>
      <point x="825" y="652" type="line"/>
      <point x="825" y="698" type="line" smooth="yes"/>
      <point x="825" y="907"/>
      <point x="737" y="1044"/>
      <point x="519" y="1060" type="curve"/>
      <point x="519" y="1298" type="line"/>
      <point x="385" y="1298" type="line"/>
      <point x="385" y="1060" type="line"/>
      <point x="162" y="1047"/>
      <point x="72" y="907"/>
      <point x="72" y="698" type="curve" smooth="yes"/>
      <point x="72" y="330" type="line" smooth="yes"/>
      <point x="72" y="157"/>
      <point x="208" y="40"/>
      <point x="385" y="26" type="curve"/>
    </contour>
  </outline>
</glyph>
<glyph name="ordmasculine" format="1">
  <advance width="954"/>
  <unicode hex="00BA"/>
  <outline>
    <contour>
      <point x="94" y="356" type="line" smooth="yes"/>
      <point x="94" y="142"/>
      <point x="161" y="-12"/>
      <point x="482" y="-12" type="curve" smooth="yes"/>
      <point x="780" y="-12"/>
      <point x="861" y="153"/>
      <point x="861" y="356" type="curve" smooth="yes"/>
      <point x="861" y="622" type="line" smooth="yes"/>
      <point x="861" y="822"/>
      <point x="779" y="990"/>
      <point x="482" y="990" type="curve" smooth="yes"/>
      <point x="161" y="990"/>
      <point x="94" y="835"/>
      <point x="94" y="622" type="curve" smooth="yes"/>
    </contour>
    <contour>
      <point x="648" y="390" type="line" smooth="yes"/>
      <point x="648" y="311"/>
      <point x="660" y="179"/>
      <point x="475" y="179" type="curve" smooth="yes"/>
      <point x="289" y="179"/>
      <point x="296" y="314"/>
      <point x="296" y="390" type="curve" smooth="yes"/>
      <point x="296" y="588" type="line" smooth="yes"/>
      <point x="296" y="665"/>
      <point x="289" y="798"/>
      <point x="475" y="798" type="curve" smooth="yes"/>
      <point x="660" y="798"/>
      <point x="648" y="667"/>
      <point x="648" y="588" type="curve" smooth="yes"/>
    </contour>
  </outline>
</glyph>
<glyph name="egrave" format="1">
  <advance width="916"/>
  <unicode hex="00E8"/>
  <outline>
    <contour>
      <point x="488" y="1153" type="line"/>
      <point x="658" y="1153" type="line"/>
      <point x="545" y="1518" type="line"/>
      <point x="259" y="1518" type="line"/>
    </contour>
    <contour>
      <point x="535" y="-24" type="curve" smooth="yes"/>
      <point x="310" y="-24"/>
      <point x="112" y="96"/>
      <point x="112" y="281" type="curve" smooth="yes"/>
      <point x="112" y="740" type="line" smooth="yes"/>
      <point x="112" y="961"/>
      <point x="248" y="1104"/>
      <point x="532" y="1104" type="curve" smooth="yes"/>
      <point x="880" y="1104"/>
      <point x="951" y="962"/>
      <point x="951" y="740" type="curve" smooth="yes"/>
      <point x="951" y="664" type="line"/>
      <point x="952" y="664" type="line"/>
      <point x="952" y="515" type="line"/>
      <point x="422" y="515" type="line"/>
      <point x="422" y="277" type="line" smooth="yes"/>
      <point x="422" y="241"/>
      <point x="437" y="186"/>
      <point x="536" y="186" type="curve" smooth="yes"/>
      <point x="639" y="186"/>
      <point x="649" y="239"/>
      <point x="649" y="277" type="curve" smooth="yes"/>
      <point x="649" y="409" type="line"/>
      <point x="951" y="409" type="line"/>
      <point x="951" y="281" type="line" smooth="yes"/>
      <point x="951" y="96"/>
      <point x="825" y="-24"/>
    </contour>
    <contour>
      <point x="422" y="664" type="line"/>
      <point x="649" y="664" type="line"/>
      <point x="649" y="812" type="line" smooth="yes"/>
      <point x="649" y="849"/>
      <point x="630" y="894"/>
      <point x="536" y="894" type="curve" smooth="yes"/>
      <point x="445" y="894"/>
      <point x="422" y="847"/>
      <point x="422" y="812" type="curve" smooth="yes"/>
    </contour>
  </outline>
</glyph>
<glyph name="eacute" format="1">
  <advance width="1148"/>
  <unicode hex="00E9"/>
  <outline>
    <contour>
      <point x="496" y="1189" type="line"/>
      <point x="664" y="1189" type="line"/>
      <point x="894" y="1554" type="line"/>
      <point x="608" y="1554" type="line"/>
    </contour>
    <component base="e"/>
  </outline>
</glyph>
<glyph name="dcroat" format="1">
  <advance width="925"/>
  <unicode hex="0111"/>
  <outline>
    <contour>
      <point x="65" y="207" type="line" smooth="yes"/>
      <point x="65" y="87"/>
      <point x="156" y="-24"/>
      <point x="281" y="-24" type="curve" smooth="yes"/>
      <point x="366" y="-24"/>
      <point x="490" y="16"/>
      <point x="569" y="81" type="curve"/>
      <point x="569" y="0" type="line"/>
      <point x="848" y="0" type="line"/>
      <point x="848" y="1245" type="line"/>
      <point x="927" y="1245" type="line"/>
      <point x="927" y="1355" type="line"/>
      <point x="848" y="1355" type="line"/>
      <point x="848" y="1490" type="line"/>
      <point x="569" y="1490" type="line"/>
      <point x="569" y="1355" type="line"/>
      <point x="235" y="1355" type="line"/>
      <point x="235" y="1245" type="line"/>
      <point x="569" y="1245" type="line"/>
      <point x="569" y="1007" type="line"/>
      <point x="493" y="1062"/>
      <point x="377" y="1105"/>
      <point x="290" y="1105" type="curve" smooth="yes"/>
      <point x="160" y="1105"/>
      <point x="65" y="977"/>
      <point x="65" y="845" type="curve" smooth="yes"/>
    </contour>
    <contour>
      <point x="569" y="246" type="line"/>
      <point x="542" y="225"/>
      <point x="488" y="186"/>
      <point x="428" y="186" type="curve" smooth="yes"/>
      <point x="351" y="186"/>
      <point x="344" y="229"/>
      <point x="344" y="264" type="curve" smooth="yes"/>
      <point x="344" y="823" type="line" smooth="yes"/>
      <point x="344" y="855"/>
      <point x="352" y="894"/>
      <point x="428" y="894" type="curve" smooth="yes"/>
      <point x="486" y="894"/>
      <point x="541" y="853"/>
      <point x="569" y="832" type="curve"/>
    </contour>
  </outline>
</glyph>
<glyph name="Tcaron" format="1">
  <advance width="777"/>
  <unicode hex="0164"/>
  <outline>
    <contour>
      <point x="199" y="1556" type="line"/>
      <point x="575" y="1556" type="line"/>
      <point x="745" y="1892" type="line"/>
      <point x="498" y="1892" type="line"/>
      <point x="386" y="1726" type="line"/>
      <point x="278" y="1892" type="line"/>
      <point x="32" y="1892" type="line"/>
    </contour>
    <contour>
      <point x="242" y="0" type="line"/>
      <point x="551" y="0" type="line"/>
      <point x="551" y="1264" type="line"/>
      <point x="766" y="1264" type="line"/>
      <point x="766" y="1490" type="line"/>
      <point x="12" y="1490" type="line"/>
      <point x="12" y="1264" type="line"/>
      <point x="242" y="1264" type="line"/>
    </contour>
  </outline>
</glyph>
<glyph name="hungarumlaut" format="1">
  <advance width="977"/>
  <unicode hex="02DD"/>
  <outline>
    <contour>
      <point x="94" y="1163" type="line"/>
      <point x="263" y="1163" type="line"/>
      <point x="556" y="1528" type="line"/>
      <point x="207" y="1528" type="line"/>
    </contour>
    <contour>
      <point x="401" y="1163" type="line"/>
      <point x="689" y="1163" type="line"/>
      <point x="867" y="1528" type="line"/>
      <point x="606" y="1528" type="line"/>
    </contour>
  </outline>
</glyph>
<glyph name="Ygrave" format="1">
  <advance width="1204"/>
  <unicode hex="1EF2"/>
  <outline>
    <contour>
      <point x="632" y="1563" type="line"/>
      <point x="802" y="1563" type="line"/>
      <point x="689" y="1928" type="line"/>
      <point x="403" y="1928" type="line"/>
    </contour>
    <contour>
      <point x="340" y="0" type="line"/>
      <point x="668" y="0" type="line"/>
      <point x="668" y="492" type="line"/>
      <point x="1206" y="1490" type="line"/>
      <point x="873" y="1490" type="line"/>
      <point x="782" y="1275"/>
      <point x="689" y="1050"/>
      <point x="598" y="835" type="curve"/>
      <point x="347" y="1490" type="line"/>
      <point x="-1" y="1490" type="line"/>
      <point x="340" y="492" type="line"/>
    </contour>
  </outline>
</glyph>
<glyph name="quotedblbase" format="1">
  <advance width="630"/>
  <unicode hex="201E"/>
  <outline>
    <contour>
      <point x="108" y="-265" type="line"/>
      <point x="242" y="-265" type="line"/>
      <point x="301" y="86" type="line"/>
      <point x="50" y="86" type="line"/>
    </contour>
    <contour>
      <point x="376" y="-265" type="line"/>
      <point x="510" y="-265" type="line"/>
      <point x="569" y="86" type="line"/>
      <point x="317" y="86" type="line"/>
    </contour>
  </outline>
</glyph>
<glyph name="dagger" format="1">
  <advance width="660"/>
  <unicode hex="2020"/>
  <outline>
    <contour>
      <point x="224" y="0" type="line"/>
      <point x="436" y="0" type="line"/>
      <point x="436" y="781" type="line"/>
      <point x="595" y="781" type="line"/>
      <point x="595" y="993" type="line"/>
      <point x="436" y="993" type="line"/>
      <point x="436" y="1271" type="line"/>
      <point x="224" y="1271" type="line"/>
      <point x="224" y="993" type="line"/>
      <point x="65" y="993" type="line"/>
      <point x="65" y="781" type="line"/>
      <point x="224" y="781" type="line"/>
    </contour>
  </outline>
</glyph>
<glyph name="foundryicon" format="1">
  <advance width="2014"/>
  <outline>
    <contour>
      <point x="316" y="229" type="line"/>
      <point x="1000" y="500" type="line"/>
      <point x="1699" y="229" type="line"/>
      <point x="1445" y="678" type="line"/>
      <point x="1969" y="967" type="line"/>
      <point x="1280" y="967" type="line"/>
      <point x="1000" y="1415" type="line"/>
      <point x="735" y="967" type="line"/>
      <point x="46" y="957" type="line"/>
      <point x="566" y="678" type="line"/>
    </contour>
  </outline>
</glyph>
